<mxfile host="Electron" modified="2023-12-29T22:29:49.476Z" agent="Mozilla/5.0 (Windows NT 10.0; Win64; x64) AppleWebKit/537.36 (KHTML, like Gecko) draw.io/22.1.2 Chrome/114.0.5735.289 Electron/25.9.4 Safari/537.36" etag="PCucE7CJtlcHxkrunOqk" version="22.1.2" type="device">
  <diagram name="PÃ¡gina-1" id="Q-dzMbbm28xhSQIxFqhs">
    <mxGraphModel dx="1863" dy="2944" grid="1" gridSize="10" guides="1" tooltips="1" connect="1" arrows="1" fold="1" page="1" pageScale="1" pageWidth="827" pageHeight="1169" math="0" shadow="0">
      <root>
        <mxCell id="0" />
        <mxCell id="1" parent="0" />
        <mxCell id="c5LJ12ENoQJ3aCximBec-11" value="&lt;font style=&quot;font-size: 16px;&quot;&gt;FactCurrencyRate&lt;/font&gt;" style="swimlane;fontStyle=0;childLayout=stackLayout;horizontal=1;startSize=30;horizontalStack=0;resizeParent=1;resizeParentMax=0;resizeLast=0;collapsible=1;marginBottom=0;whiteSpace=wrap;html=1;" parent="1" vertex="1">
          <mxGeometry x="320" y="-1660" width="202" height="180" as="geometry" />
        </mxCell>
        <mxCell id="c5LJ12ENoQJ3aCximBec-12" value="DateKey" style="text;strokeColor=none;fillColor=none;align=left;verticalAlign=middle;spacingLeft=4;spacingRight=4;overflow=hidden;points=[[0,0.5],[1,0.5]];portConstraint=eastwest;rotatable=0;whiteSpace=wrap;html=1;fontStyle=1" parent="c5LJ12ENoQJ3aCximBec-11" vertex="1">
          <mxGeometry y="30" width="202" height="30" as="geometry" />
        </mxCell>
        <mxCell id="c5LJ12ENoQJ3aCximBec-13" value="SourceCurrencyKey" style="text;strokeColor=none;fillColor=none;align=left;verticalAlign=middle;spacingLeft=4;spacingRight=4;overflow=hidden;points=[[0,0.5],[1,0.5]];portConstraint=eastwest;rotatable=0;whiteSpace=wrap;html=1;fontStyle=1" parent="c5LJ12ENoQJ3aCximBec-11" vertex="1">
          <mxGeometry y="60" width="202" height="30" as="geometry" />
        </mxCell>
        <mxCell id="c5LJ12ENoQJ3aCximBec-14" value="DestinationCurrencyKey" style="text;strokeColor=none;fillColor=none;align=left;verticalAlign=middle;spacingLeft=4;spacingRight=4;overflow=hidden;points=[[0,0.5],[1,0.5]];portConstraint=eastwest;rotatable=0;whiteSpace=wrap;html=1;fontStyle=1" parent="c5LJ12ENoQJ3aCximBec-11" vertex="1">
          <mxGeometry y="90" width="202" height="30" as="geometry" />
        </mxCell>
        <mxCell id="c5LJ12ENoQJ3aCximBec-78" value="AverageRate" style="text;strokeColor=none;fillColor=none;align=left;verticalAlign=middle;spacingLeft=4;spacingRight=4;overflow=hidden;points=[[0,0.5],[1,0.5]];portConstraint=eastwest;rotatable=0;whiteSpace=wrap;html=1;" parent="c5LJ12ENoQJ3aCximBec-11" vertex="1">
          <mxGeometry y="120" width="202" height="30" as="geometry" />
        </mxCell>
        <mxCell id="c5LJ12ENoQJ3aCximBec-79" value="EndOfDayRate" style="text;strokeColor=none;fillColor=none;align=left;verticalAlign=middle;spacingLeft=4;spacingRight=4;overflow=hidden;points=[[0,0.5],[1,0.5]];portConstraint=eastwest;rotatable=0;whiteSpace=wrap;html=1;" parent="c5LJ12ENoQJ3aCximBec-11" vertex="1">
          <mxGeometry y="150" width="202" height="30" as="geometry" />
        </mxCell>
        <mxCell id="c5LJ12ENoQJ3aCximBec-19" value="&lt;font style=&quot;font-size: 16px;&quot;&gt;DimDate&lt;/font&gt;" style="swimlane;fontStyle=0;childLayout=stackLayout;horizontal=1;startSize=30;horizontalStack=0;resizeParent=1;resizeParentMax=0;resizeLast=0;collapsible=1;marginBottom=0;whiteSpace=wrap;html=1;" parent="1" vertex="1">
          <mxGeometry x="-200" y="-1740" width="160" height="480" as="geometry" />
        </mxCell>
        <mxCell id="c5LJ12ENoQJ3aCximBec-20" value="&lt;b&gt;DateKey&lt;/b&gt;" style="text;strokeColor=none;fillColor=none;align=left;verticalAlign=middle;spacingLeft=4;spacingRight=4;overflow=hidden;points=[[0,0.5],[1,0.5]];portConstraint=eastwest;rotatable=0;whiteSpace=wrap;html=1;" parent="c5LJ12ENoQJ3aCximBec-19" vertex="1">
          <mxGeometry y="30" width="160" height="30" as="geometry" />
        </mxCell>
        <mxCell id="c5LJ12ENoQJ3aCximBec-21" value="&lt;span style=&quot;font-weight: normal;&quot;&gt;FullDate&lt;/span&gt;" style="text;strokeColor=none;fillColor=none;align=left;verticalAlign=middle;spacingLeft=4;spacingRight=4;overflow=hidden;points=[[0,0.5],[1,0.5]];portConstraint=eastwest;rotatable=0;whiteSpace=wrap;html=1;fontStyle=1" parent="c5LJ12ENoQJ3aCximBec-19" vertex="1">
          <mxGeometry y="60" width="160" height="30" as="geometry" />
        </mxCell>
        <mxCell id="c5LJ12ENoQJ3aCximBec-22" value="Day" style="text;strokeColor=none;fillColor=none;align=left;verticalAlign=middle;spacingLeft=4;spacingRight=4;overflow=hidden;points=[[0,0.5],[1,0.5]];portConstraint=eastwest;rotatable=0;whiteSpace=wrap;html=1;" parent="c5LJ12ENoQJ3aCximBec-19" vertex="1">
          <mxGeometry y="90" width="160" height="30" as="geometry" />
        </mxCell>
        <mxCell id="c5LJ12ENoQJ3aCximBec-64" value="Month" style="text;strokeColor=none;fillColor=none;align=left;verticalAlign=middle;spacingLeft=4;spacingRight=4;overflow=hidden;points=[[0,0.5],[1,0.5]];portConstraint=eastwest;rotatable=0;whiteSpace=wrap;html=1;" parent="c5LJ12ENoQJ3aCximBec-19" vertex="1">
          <mxGeometry y="120" width="160" height="30" as="geometry" />
        </mxCell>
        <mxCell id="c5LJ12ENoQJ3aCximBec-80" value="Year" style="text;strokeColor=none;fillColor=none;align=left;verticalAlign=middle;spacingLeft=4;spacingRight=4;overflow=hidden;points=[[0,0.5],[1,0.5]];portConstraint=eastwest;rotatable=0;whiteSpace=wrap;html=1;" parent="c5LJ12ENoQJ3aCximBec-19" vertex="1">
          <mxGeometry y="150" width="160" height="30" as="geometry" />
        </mxCell>
        <mxCell id="c5LJ12ENoQJ3aCximBec-81" value="Quarter" style="text;strokeColor=none;fillColor=none;align=left;verticalAlign=middle;spacingLeft=4;spacingRight=4;overflow=hidden;points=[[0,0.5],[1,0.5]];portConstraint=eastwest;rotatable=0;whiteSpace=wrap;html=1;" parent="c5LJ12ENoQJ3aCximBec-19" vertex="1">
          <mxGeometry y="180" width="160" height="30" as="geometry" />
        </mxCell>
        <mxCell id="c5LJ12ENoQJ3aCximBec-82" value="Semester" style="text;strokeColor=none;fillColor=none;align=left;verticalAlign=middle;spacingLeft=4;spacingRight=4;overflow=hidden;points=[[0,0.5],[1,0.5]];portConstraint=eastwest;rotatable=0;whiteSpace=wrap;html=1;" parent="c5LJ12ENoQJ3aCximBec-19" vertex="1">
          <mxGeometry y="210" width="160" height="30" as="geometry" />
        </mxCell>
        <mxCell id="c5LJ12ENoQJ3aCximBec-139" value="Trimester" style="text;strokeColor=none;fillColor=none;align=left;verticalAlign=middle;spacingLeft=4;spacingRight=4;overflow=hidden;points=[[0,0.5],[1,0.5]];portConstraint=eastwest;rotatable=0;whiteSpace=wrap;html=1;" parent="c5LJ12ENoQJ3aCximBec-19" vertex="1">
          <mxGeometry y="240" width="160" height="30" as="geometry" />
        </mxCell>
        <mxCell id="c5LJ12ENoQJ3aCximBec-140" value="DayNumberOfYear" style="text;strokeColor=none;fillColor=none;align=left;verticalAlign=middle;spacingLeft=4;spacingRight=4;overflow=hidden;points=[[0,0.5],[1,0.5]];portConstraint=eastwest;rotatable=0;whiteSpace=wrap;html=1;" parent="c5LJ12ENoQJ3aCximBec-19" vertex="1">
          <mxGeometry y="270" width="160" height="30" as="geometry" />
        </mxCell>
        <mxCell id="c5LJ12ENoQJ3aCximBec-141" value="DayNumberOfMonth" style="text;strokeColor=none;fillColor=none;align=left;verticalAlign=middle;spacingLeft=4;spacingRight=4;overflow=hidden;points=[[0,0.5],[1,0.5]];portConstraint=eastwest;rotatable=0;whiteSpace=wrap;html=1;" parent="c5LJ12ENoQJ3aCximBec-19" vertex="1">
          <mxGeometry y="300" width="160" height="30" as="geometry" />
        </mxCell>
        <mxCell id="c5LJ12ENoQJ3aCximBec-142" value="DayNumberOfWeek" style="text;strokeColor=none;fillColor=none;align=left;verticalAlign=middle;spacingLeft=4;spacingRight=4;overflow=hidden;points=[[0,0.5],[1,0.5]];portConstraint=eastwest;rotatable=0;whiteSpace=wrap;html=1;" parent="c5LJ12ENoQJ3aCximBec-19" vertex="1">
          <mxGeometry y="330" width="160" height="30" as="geometry" />
        </mxCell>
        <mxCell id="c5LJ12ENoQJ3aCximBec-143" value="WeekDay" style="text;strokeColor=none;fillColor=none;align=left;verticalAlign=middle;spacingLeft=4;spacingRight=4;overflow=hidden;points=[[0,0.5],[1,0.5]];portConstraint=eastwest;rotatable=0;whiteSpace=wrap;html=1;" parent="c5LJ12ENoQJ3aCximBec-19" vertex="1">
          <mxGeometry y="360" width="160" height="30" as="geometry" />
        </mxCell>
        <mxCell id="c5LJ12ENoQJ3aCximBec-144" value="Weekend" style="text;strokeColor=none;fillColor=none;align=left;verticalAlign=middle;spacingLeft=4;spacingRight=4;overflow=hidden;points=[[0,0.5],[1,0.5]];portConstraint=eastwest;rotatable=0;whiteSpace=wrap;html=1;" parent="c5LJ12ENoQJ3aCximBec-19" vertex="1">
          <mxGeometry y="390" width="160" height="30" as="geometry" />
        </mxCell>
        <mxCell id="c5LJ12ENoQJ3aCximBec-145" value="MonthName" style="text;strokeColor=none;fillColor=none;align=left;verticalAlign=middle;spacingLeft=4;spacingRight=4;overflow=hidden;points=[[0,0.5],[1,0.5]];portConstraint=eastwest;rotatable=0;whiteSpace=wrap;html=1;" parent="c5LJ12ENoQJ3aCximBec-19" vertex="1">
          <mxGeometry y="420" width="160" height="30" as="geometry" />
        </mxCell>
        <mxCell id="Ja_Ggf8oqdDwyXFBQ1Al-1" value="IsLastDayOfMonth" style="text;strokeColor=none;fillColor=none;align=left;verticalAlign=middle;spacingLeft=4;spacingRight=4;overflow=hidden;points=[[0,0.5],[1,0.5]];portConstraint=eastwest;rotatable=0;whiteSpace=wrap;html=1;" vertex="1" parent="c5LJ12ENoQJ3aCximBec-19">
          <mxGeometry y="450" width="160" height="30" as="geometry" />
        </mxCell>
        <mxCell id="c5LJ12ENoQJ3aCximBec-24" value="&lt;font style=&quot;font-size: 16px;&quot;&gt;DimProduct&lt;/font&gt;" style="swimlane;fontStyle=0;childLayout=stackLayout;horizontal=1;startSize=30;horizontalStack=0;resizeParent=1;resizeParentMax=0;resizeLast=0;collapsible=1;marginBottom=0;whiteSpace=wrap;html=1;" parent="1" vertex="1">
          <mxGeometry x="-200" y="-1220" width="160" height="750" as="geometry" />
        </mxCell>
        <mxCell id="c5LJ12ENoQJ3aCximBec-25" value="ProductKey" style="text;strokeColor=none;fillColor=none;align=left;verticalAlign=middle;spacingLeft=4;spacingRight=4;overflow=hidden;points=[[0,0.5],[1,0.5]];portConstraint=eastwest;rotatable=0;whiteSpace=wrap;html=1;fontStyle=1" parent="c5LJ12ENoQJ3aCximBec-24" vertex="1">
          <mxGeometry y="30" width="160" height="30" as="geometry" />
        </mxCell>
        <mxCell id="c5LJ12ENoQJ3aCximBec-26" value="ProductNumber" style="text;strokeColor=none;fillColor=none;align=left;verticalAlign=middle;spacingLeft=4;spacingRight=4;overflow=hidden;points=[[0,0.5],[1,0.5]];portConstraint=eastwest;rotatable=0;whiteSpace=wrap;html=1;" parent="c5LJ12ENoQJ3aCximBec-24" vertex="1">
          <mxGeometry y="60" width="160" height="30" as="geometry" />
        </mxCell>
        <mxCell id="c5LJ12ENoQJ3aCximBec-162" value="FinishedGoodsFlags" style="text;strokeColor=none;fillColor=none;align=left;verticalAlign=middle;spacingLeft=4;spacingRight=4;overflow=hidden;points=[[0,0.5],[1,0.5]];portConstraint=eastwest;rotatable=0;whiteSpace=wrap;html=1;" parent="c5LJ12ENoQJ3aCximBec-24" vertex="1">
          <mxGeometry y="90" width="160" height="30" as="geometry" />
        </mxCell>
        <mxCell id="c5LJ12ENoQJ3aCximBec-27" value="Name" style="text;strokeColor=none;fillColor=none;align=left;verticalAlign=middle;spacingLeft=4;spacingRight=4;overflow=hidden;points=[[0,0.5],[1,0.5]];portConstraint=eastwest;rotatable=0;whiteSpace=wrap;html=1;" parent="c5LJ12ENoQJ3aCximBec-24" vertex="1">
          <mxGeometry y="120" width="160" height="30" as="geometry" />
        </mxCell>
        <mxCell id="c5LJ12ENoQJ3aCximBec-83" value="Color" style="text;strokeColor=none;fillColor=none;align=left;verticalAlign=middle;spacingLeft=4;spacingRight=4;overflow=hidden;points=[[0,0.5],[1,0.5]];portConstraint=eastwest;rotatable=0;whiteSpace=wrap;html=1;" parent="c5LJ12ENoQJ3aCximBec-24" vertex="1">
          <mxGeometry y="150" width="160" height="30" as="geometry" />
        </mxCell>
        <mxCell id="c5LJ12ENoQJ3aCximBec-84" value="Size" style="text;strokeColor=none;fillColor=none;align=left;verticalAlign=middle;spacingLeft=4;spacingRight=4;overflow=hidden;points=[[0,0.5],[1,0.5]];portConstraint=eastwest;rotatable=0;whiteSpace=wrap;html=1;" parent="c5LJ12ENoQJ3aCximBec-24" vertex="1">
          <mxGeometry y="180" width="160" height="30" as="geometry" />
        </mxCell>
        <mxCell id="c5LJ12ENoQJ3aCximBec-85" value="Weight" style="text;strokeColor=none;fillColor=none;align=left;verticalAlign=middle;spacingLeft=4;spacingRight=4;overflow=hidden;points=[[0,0.5],[1,0.5]];portConstraint=eastwest;rotatable=0;whiteSpace=wrap;html=1;" parent="c5LJ12ENoQJ3aCximBec-24" vertex="1">
          <mxGeometry y="210" width="160" height="30" as="geometry" />
        </mxCell>
        <mxCell id="c5LJ12ENoQJ3aCximBec-161" value="SafetyStockLevel" style="text;strokeColor=none;fillColor=none;align=left;verticalAlign=middle;spacingLeft=4;spacingRight=4;overflow=hidden;points=[[0,0.5],[1,0.5]];portConstraint=eastwest;rotatable=0;whiteSpace=wrap;html=1;" parent="c5LJ12ENoQJ3aCximBec-24" vertex="1">
          <mxGeometry y="240" width="160" height="30" as="geometry" />
        </mxCell>
        <mxCell id="c5LJ12ENoQJ3aCximBec-86" value="StandardCost" style="text;strokeColor=none;fillColor=none;align=left;verticalAlign=middle;spacingLeft=4;spacingRight=4;overflow=hidden;points=[[0,0.5],[1,0.5]];portConstraint=eastwest;rotatable=0;whiteSpace=wrap;html=1;" parent="c5LJ12ENoQJ3aCximBec-24" vertex="1">
          <mxGeometry y="270" width="160" height="30" as="geometry" />
        </mxCell>
        <mxCell id="c5LJ12ENoQJ3aCximBec-160" value="ReorderPoint" style="text;strokeColor=none;fillColor=none;align=left;verticalAlign=middle;spacingLeft=4;spacingRight=4;overflow=hidden;points=[[0,0.5],[1,0.5]];portConstraint=eastwest;rotatable=0;whiteSpace=wrap;html=1;" parent="c5LJ12ENoQJ3aCximBec-24" vertex="1">
          <mxGeometry y="300" width="160" height="30" as="geometry" />
        </mxCell>
        <mxCell id="c5LJ12ENoQJ3aCximBec-87" value="ListPrice" style="text;strokeColor=none;fillColor=none;align=left;verticalAlign=middle;spacingLeft=4;spacingRight=4;overflow=hidden;points=[[0,0.5],[1,0.5]];portConstraint=eastwest;rotatable=0;whiteSpace=wrap;html=1;" parent="c5LJ12ENoQJ3aCximBec-24" vertex="1">
          <mxGeometry y="330" width="160" height="30" as="geometry" />
        </mxCell>
        <mxCell id="c5LJ12ENoQJ3aCximBec-88" value="SizeUnitMeasureCode" style="text;strokeColor=none;fillColor=none;align=left;verticalAlign=middle;spacingLeft=4;spacingRight=4;overflow=hidden;points=[[0,0.5],[1,0.5]];portConstraint=eastwest;rotatable=0;whiteSpace=wrap;html=1;" parent="c5LJ12ENoQJ3aCximBec-24" vertex="1">
          <mxGeometry y="360" width="160" height="30" as="geometry" />
        </mxCell>
        <mxCell id="c5LJ12ENoQJ3aCximBec-89" value=" WeightUnitMeasureCode" style="text;strokeColor=none;fillColor=none;align=left;verticalAlign=middle;spacingLeft=4;spacingRight=4;overflow=hidden;points=[[0,0.5],[1,0.5]];portConstraint=eastwest;rotatable=0;whiteSpace=wrap;html=1;" parent="c5LJ12ENoQJ3aCximBec-24" vertex="1">
          <mxGeometry y="390" width="160" height="30" as="geometry" />
        </mxCell>
        <mxCell id="c5LJ12ENoQJ3aCximBec-90" value="DaysToManufacture" style="text;strokeColor=none;fillColor=none;align=left;verticalAlign=middle;spacingLeft=4;spacingRight=4;overflow=hidden;points=[[0,0.5],[1,0.5]];portConstraint=eastwest;rotatable=0;whiteSpace=wrap;html=1;" parent="c5LJ12ENoQJ3aCximBec-24" vertex="1">
          <mxGeometry y="420" width="160" height="30" as="geometry" />
        </mxCell>
        <mxCell id="c5LJ12ENoQJ3aCximBec-91" value="ProductLine" style="text;strokeColor=none;fillColor=none;align=left;verticalAlign=middle;spacingLeft=4;spacingRight=4;overflow=hidden;points=[[0,0.5],[1,0.5]];portConstraint=eastwest;rotatable=0;whiteSpace=wrap;html=1;" parent="c5LJ12ENoQJ3aCximBec-24" vertex="1">
          <mxGeometry y="450" width="160" height="30" as="geometry" />
        </mxCell>
        <mxCell id="c5LJ12ENoQJ3aCximBec-92" value="Class" style="text;strokeColor=none;fillColor=none;align=left;verticalAlign=middle;spacingLeft=4;spacingRight=4;overflow=hidden;points=[[0,0.5],[1,0.5]];portConstraint=eastwest;rotatable=0;whiteSpace=wrap;html=1;" parent="c5LJ12ENoQJ3aCximBec-24" vertex="1">
          <mxGeometry y="480" width="160" height="30" as="geometry" />
        </mxCell>
        <mxCell id="c5LJ12ENoQJ3aCximBec-93" value="Style" style="text;strokeColor=none;fillColor=none;align=left;verticalAlign=middle;spacingLeft=4;spacingRight=4;overflow=hidden;points=[[0,0.5],[1,0.5]];portConstraint=eastwest;rotatable=0;whiteSpace=wrap;html=1;" parent="c5LJ12ENoQJ3aCximBec-24" vertex="1">
          <mxGeometry y="510" width="160" height="30" as="geometry" />
        </mxCell>
        <mxCell id="c5LJ12ENoQJ3aCximBec-153" value="ProductCategoryName" style="text;strokeColor=none;fillColor=none;align=left;verticalAlign=middle;spacingLeft=4;spacingRight=4;overflow=hidden;points=[[0,0.5],[1,0.5]];portConstraint=eastwest;rotatable=0;whiteSpace=wrap;html=1;" parent="c5LJ12ENoQJ3aCximBec-24" vertex="1">
          <mxGeometry y="540" width="160" height="30" as="geometry" />
        </mxCell>
        <mxCell id="c5LJ12ENoQJ3aCximBec-94" value="ProductSubCategoryName" style="text;strokeColor=none;fillColor=none;align=left;verticalAlign=middle;spacingLeft=4;spacingRight=4;overflow=hidden;points=[[0,0.5],[1,0.5]];portConstraint=eastwest;rotatable=0;whiteSpace=wrap;html=1;" parent="c5LJ12ENoQJ3aCximBec-24" vertex="1">
          <mxGeometry y="570" width="160" height="30" as="geometry" />
        </mxCell>
        <mxCell id="c5LJ12ENoQJ3aCximBec-95" value="SellStartDate" style="text;strokeColor=none;fillColor=none;align=left;verticalAlign=middle;spacingLeft=4;spacingRight=4;overflow=hidden;points=[[0,0.5],[1,0.5]];portConstraint=eastwest;rotatable=0;whiteSpace=wrap;html=1;" parent="c5LJ12ENoQJ3aCximBec-24" vertex="1">
          <mxGeometry y="600" width="160" height="30" as="geometry" />
        </mxCell>
        <mxCell id="c5LJ12ENoQJ3aCximBec-96" value="SellEndDate" style="text;strokeColor=none;fillColor=none;align=left;verticalAlign=middle;spacingLeft=4;spacingRight=4;overflow=hidden;points=[[0,0.5],[1,0.5]];portConstraint=eastwest;rotatable=0;whiteSpace=wrap;html=1;" parent="c5LJ12ENoQJ3aCximBec-24" vertex="1">
          <mxGeometry y="630" width="160" height="30" as="geometry" />
        </mxCell>
        <mxCell id="c5LJ12ENoQJ3aCximBec-97" value="CreatedDate" style="text;strokeColor=none;fillColor=none;align=left;verticalAlign=middle;spacingLeft=4;spacingRight=4;overflow=hidden;points=[[0,0.5],[1,0.5]];portConstraint=eastwest;rotatable=0;whiteSpace=wrap;html=1;" parent="c5LJ12ENoQJ3aCximBec-24" vertex="1">
          <mxGeometry y="660" width="160" height="30" as="geometry" />
        </mxCell>
        <mxCell id="c5LJ12ENoQJ3aCximBec-98" value="ModifiedDate" style="text;strokeColor=none;fillColor=none;align=left;verticalAlign=middle;spacingLeft=4;spacingRight=4;overflow=hidden;points=[[0,0.5],[1,0.5]];portConstraint=eastwest;rotatable=0;whiteSpace=wrap;html=1;" parent="c5LJ12ENoQJ3aCximBec-24" vertex="1">
          <mxGeometry y="690" width="160" height="30" as="geometry" />
        </mxCell>
        <mxCell id="c5LJ12ENoQJ3aCximBec-151" value="IsCurrent" style="text;strokeColor=none;fillColor=none;align=left;verticalAlign=middle;spacingLeft=4;spacingRight=4;overflow=hidden;points=[[0,0.5],[1,0.5]];portConstraint=eastwest;rotatable=0;whiteSpace=wrap;html=1;" parent="c5LJ12ENoQJ3aCximBec-24" vertex="1">
          <mxGeometry y="720" width="160" height="30" as="geometry" />
        </mxCell>
        <mxCell id="c5LJ12ENoQJ3aCximBec-28" value="&lt;font style=&quot;font-size: 16px;&quot;&gt;DimCustomer&lt;/font&gt;" style="swimlane;fontStyle=0;childLayout=stackLayout;horizontal=1;startSize=30;horizontalStack=0;resizeParent=1;resizeParentMax=0;resizeLast=0;collapsible=1;marginBottom=0;whiteSpace=wrap;html=1;" parent="1" vertex="1">
          <mxGeometry x="320" y="-470" width="160" height="330" as="geometry" />
        </mxCell>
        <mxCell id="c5LJ12ENoQJ3aCximBec-29" value="&lt;b&gt; CustomerKey&lt;/b&gt;" style="text;strokeColor=none;fillColor=none;align=left;verticalAlign=middle;spacingLeft=4;spacingRight=4;overflow=hidden;points=[[0,0.5],[1,0.5]];portConstraint=eastwest;rotatable=0;whiteSpace=wrap;html=1;" parent="c5LJ12ENoQJ3aCximBec-28" vertex="1">
          <mxGeometry y="30" width="160" height="30" as="geometry" />
        </mxCell>
        <mxCell id="c5LJ12ENoQJ3aCximBec-30" value="CustomerID" style="text;strokeColor=none;fillColor=none;align=left;verticalAlign=middle;spacingLeft=4;spacingRight=4;overflow=hidden;points=[[0,0.5],[1,0.5]];portConstraint=eastwest;rotatable=0;whiteSpace=wrap;html=1;" parent="c5LJ12ENoQJ3aCximBec-28" vertex="1">
          <mxGeometry y="60" width="160" height="30" as="geometry" />
        </mxCell>
        <mxCell id="c5LJ12ENoQJ3aCximBec-31" value="PersonType" style="text;strokeColor=none;fillColor=none;align=left;verticalAlign=middle;spacingLeft=4;spacingRight=4;overflow=hidden;points=[[0,0.5],[1,0.5]];portConstraint=eastwest;rotatable=0;whiteSpace=wrap;html=1;" parent="c5LJ12ENoQJ3aCximBec-28" vertex="1">
          <mxGeometry y="90" width="160" height="30" as="geometry" />
        </mxCell>
        <mxCell id="c5LJ12ENoQJ3aCximBec-163" value="Title" style="text;strokeColor=none;fillColor=none;align=left;verticalAlign=middle;spacingLeft=4;spacingRight=4;overflow=hidden;points=[[0,0.5],[1,0.5]];portConstraint=eastwest;rotatable=0;whiteSpace=wrap;html=1;" parent="c5LJ12ENoQJ3aCximBec-28" vertex="1">
          <mxGeometry y="120" width="160" height="30" as="geometry" />
        </mxCell>
        <mxCell id="c5LJ12ENoQJ3aCximBec-99" value="FirstName" style="text;strokeColor=none;fillColor=none;align=left;verticalAlign=middle;spacingLeft=4;spacingRight=4;overflow=hidden;points=[[0,0.5],[1,0.5]];portConstraint=eastwest;rotatable=0;whiteSpace=wrap;html=1;" parent="c5LJ12ENoQJ3aCximBec-28" vertex="1">
          <mxGeometry y="150" width="160" height="30" as="geometry" />
        </mxCell>
        <mxCell id="c5LJ12ENoQJ3aCximBec-100" value="MiddleName" style="text;strokeColor=none;fillColor=none;align=left;verticalAlign=middle;spacingLeft=4;spacingRight=4;overflow=hidden;points=[[0,0.5],[1,0.5]];portConstraint=eastwest;rotatable=0;whiteSpace=wrap;html=1;" parent="c5LJ12ENoQJ3aCximBec-28" vertex="1">
          <mxGeometry y="180" width="160" height="30" as="geometry" />
        </mxCell>
        <mxCell id="c5LJ12ENoQJ3aCximBec-102" value="LastName" style="text;strokeColor=none;fillColor=none;align=left;verticalAlign=middle;spacingLeft=4;spacingRight=4;overflow=hidden;points=[[0,0.5],[1,0.5]];portConstraint=eastwest;rotatable=0;whiteSpace=wrap;html=1;" parent="c5LJ12ENoQJ3aCximBec-28" vertex="1">
          <mxGeometry y="210" width="160" height="30" as="geometry" />
        </mxCell>
        <mxCell id="c5LJ12ENoQJ3aCximBec-103" value="CreatedDate" style="text;strokeColor=none;fillColor=none;align=left;verticalAlign=middle;spacingLeft=4;spacingRight=4;overflow=hidden;points=[[0,0.5],[1,0.5]];portConstraint=eastwest;rotatable=0;whiteSpace=wrap;html=1;" parent="c5LJ12ENoQJ3aCximBec-28" vertex="1">
          <mxGeometry y="240" width="160" height="30" as="geometry" />
        </mxCell>
        <mxCell id="c5LJ12ENoQJ3aCximBec-104" value="ModifiedDate" style="text;strokeColor=none;fillColor=none;align=left;verticalAlign=middle;spacingLeft=4;spacingRight=4;overflow=hidden;points=[[0,0.5],[1,0.5]];portConstraint=eastwest;rotatable=0;whiteSpace=wrap;html=1;" parent="c5LJ12ENoQJ3aCximBec-28" vertex="1">
          <mxGeometry y="270" width="160" height="30" as="geometry" />
        </mxCell>
        <mxCell id="c5LJ12ENoQJ3aCximBec-146" value="IsCurrent" style="text;strokeColor=none;fillColor=none;align=left;verticalAlign=middle;spacingLeft=4;spacingRight=4;overflow=hidden;points=[[0,0.5],[1,0.5]];portConstraint=eastwest;rotatable=0;whiteSpace=wrap;html=1;" parent="c5LJ12ENoQJ3aCximBec-28" vertex="1">
          <mxGeometry y="300" width="160" height="30" as="geometry" />
        </mxCell>
        <mxCell id="c5LJ12ENoQJ3aCximBec-32" value="&lt;font style=&quot;font-size: 16px;&quot;&gt;DimEmployee&lt;/font&gt;" style="swimlane;fontStyle=0;childLayout=stackLayout;horizontal=1;startSize=30;horizontalStack=0;resizeParent=1;resizeParentMax=0;resizeLast=0;collapsible=1;marginBottom=0;whiteSpace=wrap;html=1;" parent="1" vertex="1">
          <mxGeometry x="1250" y="-1530" width="162.5" height="870" as="geometry" />
        </mxCell>
        <mxCell id="c5LJ12ENoQJ3aCximBec-33" value="&lt;b&gt;EmployeeKey&lt;/b&gt;" style="text;strokeColor=none;fillColor=none;align=left;verticalAlign=middle;spacingLeft=4;spacingRight=4;overflow=hidden;points=[[0,0.5],[1,0.5]];portConstraint=eastwest;rotatable=0;whiteSpace=wrap;html=1;" parent="c5LJ12ENoQJ3aCximBec-32" vertex="1">
          <mxGeometry y="30" width="162.5" height="30" as="geometry" />
        </mxCell>
        <mxCell id="c5LJ12ENoQJ3aCximBec-123" value="SalesLastYear" style="text;strokeColor=none;fillColor=none;align=left;verticalAlign=middle;spacingLeft=4;spacingRight=4;overflow=hidden;points=[[0,0.5],[1,0.5]];portConstraint=eastwest;rotatable=0;whiteSpace=wrap;html=1;" parent="c5LJ12ENoQJ3aCximBec-32" vertex="1">
          <mxGeometry y="60" width="162.5" height="30" as="geometry" />
        </mxCell>
        <mxCell id="WiNG1Lyjy8zmzZV9dCeJ-20" value="CreatedDate" style="text;strokeColor=none;fillColor=none;align=left;verticalAlign=middle;spacingLeft=4;spacingRight=4;overflow=hidden;points=[[0,0.5],[1,0.5]];portConstraint=eastwest;rotatable=0;whiteSpace=wrap;html=1;" parent="c5LJ12ENoQJ3aCximBec-32" vertex="1">
          <mxGeometry y="90" width="162.5" height="30" as="geometry" />
        </mxCell>
        <mxCell id="c5LJ12ENoQJ3aCximBec-124" value="CreatedDate" style="text;strokeColor=none;fillColor=none;align=left;verticalAlign=middle;spacingLeft=4;spacingRight=4;overflow=hidden;points=[[0,0.5],[1,0.5]];portConstraint=eastwest;rotatable=0;whiteSpace=wrap;html=1;" parent="c5LJ12ENoQJ3aCximBec-32" vertex="1">
          <mxGeometry y="120" width="162.5" height="30" as="geometry" />
        </mxCell>
        <mxCell id="c5LJ12ENoQJ3aCximBec-34" value="BusinessEntityID" style="text;strokeColor=none;fillColor=none;align=left;verticalAlign=middle;spacingLeft=4;spacingRight=4;overflow=hidden;points=[[0,0.5],[1,0.5]];portConstraint=eastwest;rotatable=0;whiteSpace=wrap;html=1;" parent="c5LJ12ENoQJ3aCximBec-32" vertex="1">
          <mxGeometry y="150" width="162.5" height="30" as="geometry" />
        </mxCell>
        <mxCell id="c5LJ12ENoQJ3aCximBec-35" value="NationalIDNumber" style="text;strokeColor=none;fillColor=none;align=left;verticalAlign=middle;spacingLeft=4;spacingRight=4;overflow=hidden;points=[[0,0.5],[1,0.5]];portConstraint=eastwest;rotatable=0;whiteSpace=wrap;html=1;" parent="c5LJ12ENoQJ3aCximBec-32" vertex="1">
          <mxGeometry y="180" width="162.5" height="30" as="geometry" />
        </mxCell>
        <mxCell id="c5LJ12ENoQJ3aCximBec-105" value="LoginID" style="text;strokeColor=none;fillColor=none;align=left;verticalAlign=middle;spacingLeft=4;spacingRight=4;overflow=hidden;points=[[0,0.5],[1,0.5]];portConstraint=eastwest;rotatable=0;whiteSpace=wrap;html=1;" parent="c5LJ12ENoQJ3aCximBec-32" vertex="1">
          <mxGeometry y="210" width="162.5" height="30" as="geometry" />
        </mxCell>
        <mxCell id="c5LJ12ENoQJ3aCximBec-106" value="JobTitle" style="text;strokeColor=none;fillColor=none;align=left;verticalAlign=middle;spacingLeft=4;spacingRight=4;overflow=hidden;points=[[0,0.5],[1,0.5]];portConstraint=eastwest;rotatable=0;whiteSpace=wrap;html=1;" parent="c5LJ12ENoQJ3aCximBec-32" vertex="1">
          <mxGeometry y="240" width="162.5" height="30" as="geometry" />
        </mxCell>
        <mxCell id="c5LJ12ENoQJ3aCximBec-107" value="BirthDate" style="text;strokeColor=none;fillColor=none;align=left;verticalAlign=middle;spacingLeft=4;spacingRight=4;overflow=hidden;points=[[0,0.5],[1,0.5]];portConstraint=eastwest;rotatable=0;whiteSpace=wrap;html=1;" parent="c5LJ12ENoQJ3aCximBec-32" vertex="1">
          <mxGeometry y="270" width="162.5" height="30" as="geometry" />
        </mxCell>
        <mxCell id="c5LJ12ENoQJ3aCximBec-108" value="MaritalStatus" style="text;strokeColor=none;fillColor=none;align=left;verticalAlign=middle;spacingLeft=4;spacingRight=4;overflow=hidden;points=[[0,0.5],[1,0.5]];portConstraint=eastwest;rotatable=0;whiteSpace=wrap;html=1;" parent="c5LJ12ENoQJ3aCximBec-32" vertex="1">
          <mxGeometry y="300" width="162.5" height="30" as="geometry" />
        </mxCell>
        <mxCell id="c5LJ12ENoQJ3aCximBec-109" value="Gender" style="text;strokeColor=none;fillColor=none;align=left;verticalAlign=middle;spacingLeft=4;spacingRight=4;overflow=hidden;points=[[0,0.5],[1,0.5]];portConstraint=eastwest;rotatable=0;whiteSpace=wrap;html=1;" parent="c5LJ12ENoQJ3aCximBec-32" vertex="1">
          <mxGeometry y="330" width="162.5" height="30" as="geometry" />
        </mxCell>
        <mxCell id="c5LJ12ENoQJ3aCximBec-110" value="HireDate" style="text;strokeColor=none;fillColor=none;align=left;verticalAlign=middle;spacingLeft=4;spacingRight=4;overflow=hidden;points=[[0,0.5],[1,0.5]];portConstraint=eastwest;rotatable=0;whiteSpace=wrap;html=1;" parent="c5LJ12ENoQJ3aCximBec-32" vertex="1">
          <mxGeometry y="360" width="162.5" height="30" as="geometry" />
        </mxCell>
        <mxCell id="c5LJ12ENoQJ3aCximBec-111" value="SalariedFlag" style="text;strokeColor=none;fillColor=none;align=left;verticalAlign=middle;spacingLeft=4;spacingRight=4;overflow=hidden;points=[[0,0.5],[1,0.5]];portConstraint=eastwest;rotatable=0;whiteSpace=wrap;html=1;" parent="c5LJ12ENoQJ3aCximBec-32" vertex="1">
          <mxGeometry y="390" width="162.5" height="30" as="geometry" />
        </mxCell>
        <mxCell id="c5LJ12ENoQJ3aCximBec-112" value="VacationHours" style="text;strokeColor=none;fillColor=none;align=left;verticalAlign=middle;spacingLeft=4;spacingRight=4;overflow=hidden;points=[[0,0.5],[1,0.5]];portConstraint=eastwest;rotatable=0;whiteSpace=wrap;html=1;" parent="c5LJ12ENoQJ3aCximBec-32" vertex="1">
          <mxGeometry y="420" width="162.5" height="30" as="geometry" />
        </mxCell>
        <mxCell id="c5LJ12ENoQJ3aCximBec-113" value="SickLeaveHours" style="text;strokeColor=none;fillColor=none;align=left;verticalAlign=middle;spacingLeft=4;spacingRight=4;overflow=hidden;points=[[0,0.5],[1,0.5]];portConstraint=eastwest;rotatable=0;whiteSpace=wrap;html=1;" parent="c5LJ12ENoQJ3aCximBec-32" vertex="1">
          <mxGeometry y="450" width="162.5" height="30" as="geometry" />
        </mxCell>
        <mxCell id="c5LJ12ENoQJ3aCximBec-164" value="Title" style="text;strokeColor=none;fillColor=none;align=left;verticalAlign=middle;spacingLeft=4;spacingRight=4;overflow=hidden;points=[[0,0.5],[1,0.5]];portConstraint=eastwest;rotatable=0;whiteSpace=wrap;html=1;" parent="c5LJ12ENoQJ3aCximBec-32" vertex="1">
          <mxGeometry y="480" width="162.5" height="30" as="geometry" />
        </mxCell>
        <mxCell id="c5LJ12ENoQJ3aCximBec-166" value="PersonType" style="text;strokeColor=none;fillColor=none;align=left;verticalAlign=middle;spacingLeft=4;spacingRight=4;overflow=hidden;points=[[0,0.5],[1,0.5]];portConstraint=eastwest;rotatable=0;whiteSpace=wrap;html=1;" parent="c5LJ12ENoQJ3aCximBec-32" vertex="1">
          <mxGeometry y="510" width="162.5" height="30" as="geometry" />
        </mxCell>
        <mxCell id="c5LJ12ENoQJ3aCximBec-170" value="FirstName" style="text;strokeColor=none;fillColor=none;align=left;verticalAlign=middle;spacingLeft=4;spacingRight=4;overflow=hidden;points=[[0,0.5],[1,0.5]];portConstraint=eastwest;rotatable=0;whiteSpace=wrap;html=1;" parent="c5LJ12ENoQJ3aCximBec-32" vertex="1">
          <mxGeometry y="540" width="162.5" height="30" as="geometry" />
        </mxCell>
        <mxCell id="c5LJ12ENoQJ3aCximBec-169" value="MiddleName" style="text;strokeColor=none;fillColor=none;align=left;verticalAlign=middle;spacingLeft=4;spacingRight=4;overflow=hidden;points=[[0,0.5],[1,0.5]];portConstraint=eastwest;rotatable=0;whiteSpace=wrap;html=1;" parent="c5LJ12ENoQJ3aCximBec-32" vertex="1">
          <mxGeometry y="570" width="162.5" height="30" as="geometry" />
        </mxCell>
        <mxCell id="c5LJ12ENoQJ3aCximBec-165" value="LastName" style="text;strokeColor=none;fillColor=none;align=left;verticalAlign=middle;spacingLeft=4;spacingRight=4;overflow=hidden;points=[[0,0.5],[1,0.5]];portConstraint=eastwest;rotatable=0;whiteSpace=wrap;html=1;" parent="c5LJ12ENoQJ3aCximBec-32" vertex="1">
          <mxGeometry y="600" width="162.5" height="30" as="geometry" />
        </mxCell>
        <mxCell id="c5LJ12ENoQJ3aCximBec-167" value="SalesQuota" style="text;strokeColor=none;fillColor=none;align=left;verticalAlign=middle;spacingLeft=4;spacingRight=4;overflow=hidden;points=[[0,0.5],[1,0.5]];portConstraint=eastwest;rotatable=0;whiteSpace=wrap;html=1;" parent="c5LJ12ENoQJ3aCximBec-32" vertex="1">
          <mxGeometry y="630" width="162.5" height="30" as="geometry" />
        </mxCell>
        <mxCell id="c5LJ12ENoQJ3aCximBec-171" value="Bonus" style="text;strokeColor=none;fillColor=none;align=left;verticalAlign=middle;spacingLeft=4;spacingRight=4;overflow=hidden;points=[[0,0.5],[1,0.5]];portConstraint=eastwest;rotatable=0;whiteSpace=wrap;html=1;" parent="c5LJ12ENoQJ3aCximBec-32" vertex="1">
          <mxGeometry y="660" width="162.5" height="30" as="geometry" />
        </mxCell>
        <mxCell id="c5LJ12ENoQJ3aCximBec-173" value="ComissionPct" style="text;strokeColor=none;fillColor=none;align=left;verticalAlign=middle;spacingLeft=4;spacingRight=4;overflow=hidden;points=[[0,0.5],[1,0.5]];portConstraint=eastwest;rotatable=0;whiteSpace=wrap;html=1;" parent="c5LJ12ENoQJ3aCximBec-32" vertex="1">
          <mxGeometry y="690" width="162.5" height="30" as="geometry" />
        </mxCell>
        <mxCell id="c5LJ12ENoQJ3aCximBec-172" value="SalesYTD" style="text;strokeColor=none;fillColor=none;align=left;verticalAlign=middle;spacingLeft=4;spacingRight=4;overflow=hidden;points=[[0,0.5],[1,0.5]];portConstraint=eastwest;rotatable=0;whiteSpace=wrap;html=1;" parent="c5LJ12ENoQJ3aCximBec-32" vertex="1">
          <mxGeometry y="720" width="162.5" height="30" as="geometry" />
        </mxCell>
        <mxCell id="c5LJ12ENoQJ3aCximBec-174" value="SalesLastYear" style="text;strokeColor=none;fillColor=none;align=left;verticalAlign=middle;spacingLeft=4;spacingRight=4;overflow=hidden;points=[[0,0.5],[1,0.5]];portConstraint=eastwest;rotatable=0;whiteSpace=wrap;html=1;" parent="c5LJ12ENoQJ3aCximBec-32" vertex="1">
          <mxGeometry y="750" width="162.5" height="30" as="geometry" />
        </mxCell>
        <mxCell id="c5LJ12ENoQJ3aCximBec-114" value="CreatedDate" style="text;strokeColor=none;fillColor=none;align=left;verticalAlign=middle;spacingLeft=4;spacingRight=4;overflow=hidden;points=[[0,0.5],[1,0.5]];portConstraint=eastwest;rotatable=0;whiteSpace=wrap;html=1;" parent="c5LJ12ENoQJ3aCximBec-32" vertex="1">
          <mxGeometry y="780" width="162.5" height="30" as="geometry" />
        </mxCell>
        <mxCell id="c5LJ12ENoQJ3aCximBec-115" value="ModifiedDate" style="text;strokeColor=none;fillColor=none;align=left;verticalAlign=middle;spacingLeft=4;spacingRight=4;overflow=hidden;points=[[0,0.5],[1,0.5]];portConstraint=eastwest;rotatable=0;whiteSpace=wrap;html=1;" parent="c5LJ12ENoQJ3aCximBec-32" vertex="1">
          <mxGeometry y="810" width="162.5" height="30" as="geometry" />
        </mxCell>
        <mxCell id="c5LJ12ENoQJ3aCximBec-147" value="IsCurrent" style="text;strokeColor=none;fillColor=none;align=left;verticalAlign=middle;spacingLeft=4;spacingRight=4;overflow=hidden;points=[[0,0.5],[1,0.5]];portConstraint=eastwest;rotatable=0;whiteSpace=wrap;html=1;" parent="c5LJ12ENoQJ3aCximBec-32" vertex="1">
          <mxGeometry y="840" width="162.5" height="30" as="geometry" />
        </mxCell>
        <mxCell id="c5LJ12ENoQJ3aCximBec-36" value="&lt;font style=&quot;font-size: 16px;&quot;&gt;DimCurrency&lt;/font&gt;" style="swimlane;fontStyle=0;childLayout=stackLayout;horizontal=1;startSize=30;horizontalStack=0;resizeParent=1;resizeParentMax=0;resizeLast=0;collapsible=1;marginBottom=0;whiteSpace=wrap;html=1;" parent="1" vertex="1">
          <mxGeometry x="720" y="-1580" width="170" height="210" as="geometry" />
        </mxCell>
        <mxCell id="c5LJ12ENoQJ3aCximBec-37" value="CurrencyKey" style="text;strokeColor=none;fillColor=none;align=left;verticalAlign=middle;spacingLeft=4;spacingRight=4;overflow=hidden;points=[[0,0.5],[1,0.5]];portConstraint=eastwest;rotatable=0;whiteSpace=wrap;html=1;fontStyle=1" parent="c5LJ12ENoQJ3aCximBec-36" vertex="1">
          <mxGeometry y="30" width="170" height="30" as="geometry" />
        </mxCell>
        <mxCell id="c5LJ12ENoQJ3aCximBec-38" value=" CurrencyID" style="text;strokeColor=none;fillColor=none;align=left;verticalAlign=middle;spacingLeft=4;spacingRight=4;overflow=hidden;points=[[0,0.5],[1,0.5]];portConstraint=eastwest;rotatable=0;whiteSpace=wrap;html=1;" parent="c5LJ12ENoQJ3aCximBec-36" vertex="1">
          <mxGeometry y="60" width="170" height="30" as="geometry" />
        </mxCell>
        <mxCell id="c5LJ12ENoQJ3aCximBec-39" value="Name" style="text;strokeColor=none;fillColor=none;align=left;verticalAlign=middle;spacingLeft=4;spacingRight=4;overflow=hidden;points=[[0,0.5],[1,0.5]];portConstraint=eastwest;rotatable=0;whiteSpace=wrap;html=1;" parent="c5LJ12ENoQJ3aCximBec-36" vertex="1">
          <mxGeometry y="90" width="170" height="30" as="geometry" />
        </mxCell>
        <mxCell id="c5LJ12ENoQJ3aCximBec-116" value="CreatedDate" style="text;strokeColor=none;fillColor=none;align=left;verticalAlign=middle;spacingLeft=4;spacingRight=4;overflow=hidden;points=[[0,0.5],[1,0.5]];portConstraint=eastwest;rotatable=0;whiteSpace=wrap;html=1;" parent="c5LJ12ENoQJ3aCximBec-36" vertex="1">
          <mxGeometry y="120" width="170" height="30" as="geometry" />
        </mxCell>
        <mxCell id="c5LJ12ENoQJ3aCximBec-117" value="ModifiedDate" style="text;strokeColor=none;fillColor=none;align=left;verticalAlign=middle;spacingLeft=4;spacingRight=4;overflow=hidden;points=[[0,0.5],[1,0.5]];portConstraint=eastwest;rotatable=0;whiteSpace=wrap;html=1;" parent="c5LJ12ENoQJ3aCximBec-36" vertex="1">
          <mxGeometry y="150" width="170" height="30" as="geometry" />
        </mxCell>
        <mxCell id="c5LJ12ENoQJ3aCximBec-150" value="IsCurrent" style="text;strokeColor=none;fillColor=none;align=left;verticalAlign=middle;spacingLeft=4;spacingRight=4;overflow=hidden;points=[[0,0.5],[1,0.5]];portConstraint=eastwest;rotatable=0;whiteSpace=wrap;html=1;" parent="c5LJ12ENoQJ3aCximBec-36" vertex="1">
          <mxGeometry y="180" width="170" height="30" as="geometry" />
        </mxCell>
        <mxCell id="c5LJ12ENoQJ3aCximBec-40" value="&lt;font style=&quot;font-size: 16px;&quot;&gt;DimTerritory&lt;/font&gt;" style="swimlane;fontStyle=0;childLayout=stackLayout;horizontal=1;startSize=30;horizontalStack=0;resizeParent=1;resizeParentMax=0;resizeLast=0;collapsible=1;marginBottom=0;whiteSpace=wrap;html=1;" parent="1" vertex="1">
          <mxGeometry x="1010" y="-719" width="170" height="270" as="geometry" />
        </mxCell>
        <mxCell id="c5LJ12ENoQJ3aCximBec-41" value="TerritoryKey" style="text;strokeColor=none;fillColor=none;align=left;verticalAlign=middle;spacingLeft=4;spacingRight=4;overflow=hidden;points=[[0,0.5],[1,0.5]];portConstraint=eastwest;rotatable=0;whiteSpace=wrap;html=1;fontStyle=1" parent="c5LJ12ENoQJ3aCximBec-40" vertex="1">
          <mxGeometry y="30" width="170" height="30" as="geometry" />
        </mxCell>
        <mxCell id="c5LJ12ENoQJ3aCximBec-42" value="TerritoryID" style="text;strokeColor=none;fillColor=none;align=left;verticalAlign=middle;spacingLeft=4;spacingRight=4;overflow=hidden;points=[[0,0.5],[1,0.5]];portConstraint=eastwest;rotatable=0;whiteSpace=wrap;html=1;" parent="c5LJ12ENoQJ3aCximBec-40" vertex="1">
          <mxGeometry y="60" width="170" height="30" as="geometry" />
        </mxCell>
        <mxCell id="c5LJ12ENoQJ3aCximBec-43" value="Name" style="text;strokeColor=none;fillColor=none;align=left;verticalAlign=middle;spacingLeft=4;spacingRight=4;overflow=hidden;points=[[0,0.5],[1,0.5]];portConstraint=eastwest;rotatable=0;whiteSpace=wrap;html=1;" parent="c5LJ12ENoQJ3aCximBec-40" vertex="1">
          <mxGeometry y="90" width="170" height="30" as="geometry" />
        </mxCell>
        <mxCell id="c5LJ12ENoQJ3aCximBec-120" value="CountryRegionCode" style="text;strokeColor=none;fillColor=none;align=left;verticalAlign=middle;spacingLeft=4;spacingRight=4;overflow=hidden;points=[[0,0.5],[1,0.5]];portConstraint=eastwest;rotatable=0;whiteSpace=wrap;html=1;" parent="c5LJ12ENoQJ3aCximBec-40" vertex="1">
          <mxGeometry y="120" width="170" height="30" as="geometry" />
        </mxCell>
        <mxCell id="c5LJ12ENoQJ3aCximBec-121" value="Group" style="text;strokeColor=none;fillColor=none;align=left;verticalAlign=middle;spacingLeft=4;spacingRight=4;overflow=hidden;points=[[0,0.5],[1,0.5]];portConstraint=eastwest;rotatable=0;whiteSpace=wrap;html=1;" parent="c5LJ12ENoQJ3aCximBec-40" vertex="1">
          <mxGeometry y="150" width="170" height="30" as="geometry" />
        </mxCell>
        <mxCell id="c5LJ12ENoQJ3aCximBec-122" value="SalesYTD" style="text;strokeColor=none;fillColor=none;align=left;verticalAlign=middle;spacingLeft=4;spacingRight=4;overflow=hidden;points=[[0,0.5],[1,0.5]];portConstraint=eastwest;rotatable=0;whiteSpace=wrap;html=1;" parent="c5LJ12ENoQJ3aCximBec-40" vertex="1">
          <mxGeometry y="180" width="170" height="30" as="geometry" />
        </mxCell>
        <mxCell id="c5LJ12ENoQJ3aCximBec-125" value="ModifiedDate" style="text;strokeColor=none;fillColor=none;align=left;verticalAlign=middle;spacingLeft=4;spacingRight=4;overflow=hidden;points=[[0,0.5],[1,0.5]];portConstraint=eastwest;rotatable=0;whiteSpace=wrap;html=1;" parent="c5LJ12ENoQJ3aCximBec-40" vertex="1">
          <mxGeometry y="210" width="170" height="30" as="geometry" />
        </mxCell>
        <mxCell id="c5LJ12ENoQJ3aCximBec-149" value="IsCurrent" style="text;strokeColor=none;fillColor=none;align=left;verticalAlign=middle;spacingLeft=4;spacingRight=4;overflow=hidden;points=[[0,0.5],[1,0.5]];portConstraint=eastwest;rotatable=0;whiteSpace=wrap;html=1;" parent="c5LJ12ENoQJ3aCximBec-40" vertex="1">
          <mxGeometry y="240" width="170" height="30" as="geometry" />
        </mxCell>
        <mxCell id="c5LJ12ENoQJ3aCximBec-44" value="&lt;font style=&quot;font-size: 16px;&quot;&gt;DimTransaction&lt;/font&gt;" style="swimlane;fontStyle=0;childLayout=stackLayout;horizontal=1;startSize=30;horizontalStack=0;resizeParent=1;resizeParentMax=0;resizeLast=0;collapsible=1;marginBottom=0;whiteSpace=wrap;html=1;" parent="1" vertex="1">
          <mxGeometry x="690" y="-390" width="170" height="210" as="geometry" />
        </mxCell>
        <mxCell id="c5LJ12ENoQJ3aCximBec-45" value="&lt;b&gt;TransactionKey&lt;/b&gt;" style="text;strokeColor=none;fillColor=none;align=left;verticalAlign=middle;spacingLeft=4;spacingRight=4;overflow=hidden;points=[[0,0.5],[1,0.5]];portConstraint=eastwest;rotatable=0;whiteSpace=wrap;html=1;" parent="c5LJ12ENoQJ3aCximBec-44" vertex="1">
          <mxGeometry y="30" width="170" height="30" as="geometry" />
        </mxCell>
        <mxCell id="c5LJ12ENoQJ3aCximBec-138" value="TransactionID" style="text;strokeColor=none;fillColor=none;align=left;verticalAlign=middle;spacingLeft=4;spacingRight=4;overflow=hidden;points=[[0,0.5],[1,0.5]];portConstraint=eastwest;rotatable=0;whiteSpace=wrap;html=1;" parent="c5LJ12ENoQJ3aCximBec-44" vertex="1">
          <mxGeometry y="60" width="170" height="30" as="geometry" />
        </mxCell>
        <mxCell id="c5LJ12ENoQJ3aCximBec-46" value="Freight" style="text;strokeColor=none;fillColor=none;align=left;verticalAlign=middle;spacingLeft=4;spacingRight=4;overflow=hidden;points=[[0,0.5],[1,0.5]];portConstraint=eastwest;rotatable=0;whiteSpace=wrap;html=1;" parent="c5LJ12ENoQJ3aCximBec-44" vertex="1">
          <mxGeometry y="90" width="170" height="30" as="geometry" />
        </mxCell>
        <mxCell id="c5LJ12ENoQJ3aCximBec-47" value="TaxAmount" style="text;strokeColor=none;fillColor=none;align=left;verticalAlign=middle;spacingLeft=4;spacingRight=4;overflow=hidden;points=[[0,0.5],[1,0.5]];portConstraint=eastwest;rotatable=0;whiteSpace=wrap;html=1;" parent="c5LJ12ENoQJ3aCximBec-44" vertex="1">
          <mxGeometry y="120" width="170" height="30" as="geometry" />
        </mxCell>
        <mxCell id="c5LJ12ENoQJ3aCximBec-75" value="SubTotal" style="text;strokeColor=none;fillColor=none;align=left;verticalAlign=middle;spacingLeft=4;spacingRight=4;overflow=hidden;points=[[0,0.5],[1,0.5]];portConstraint=eastwest;rotatable=0;whiteSpace=wrap;html=1;" parent="c5LJ12ENoQJ3aCximBec-44" vertex="1">
          <mxGeometry y="150" width="170" height="30" as="geometry" />
        </mxCell>
        <mxCell id="c5LJ12ENoQJ3aCximBec-77" value="TotalDue" style="text;strokeColor=none;fillColor=none;align=left;verticalAlign=middle;spacingLeft=4;spacingRight=4;overflow=hidden;points=[[0,0.5],[1,0.5]];portConstraint=eastwest;rotatable=0;whiteSpace=wrap;html=1;" parent="c5LJ12ENoQJ3aCximBec-44" vertex="1">
          <mxGeometry y="180" width="170" height="30" as="geometry" />
        </mxCell>
        <mxCell id="c5LJ12ENoQJ3aCximBec-48" value="&lt;font style=&quot;font-size: 16px;&quot;&gt;DimAddress&lt;/font&gt;" style="swimlane;fontStyle=0;childLayout=stackLayout;horizontal=1;startSize=30;horizontalStack=0;resizeParent=1;resizeParentMax=0;resizeLast=0;collapsible=1;marginBottom=0;whiteSpace=wrap;html=1;" parent="1" vertex="1">
          <mxGeometry x="-10" y="-520" width="160" height="390" as="geometry" />
        </mxCell>
        <mxCell id="c5LJ12ENoQJ3aCximBec-49" value="&lt;b&gt;AddressKey&lt;/b&gt;" style="text;strokeColor=none;fillColor=none;align=left;verticalAlign=middle;spacingLeft=4;spacingRight=4;overflow=hidden;points=[[0,0.5],[1,0.5]];portConstraint=eastwest;rotatable=0;whiteSpace=wrap;html=1;" parent="c5LJ12ENoQJ3aCximBec-48" vertex="1">
          <mxGeometry y="30" width="160" height="30" as="geometry" />
        </mxCell>
        <mxCell id="c5LJ12ENoQJ3aCximBec-50" value="AddressID" style="text;strokeColor=none;fillColor=none;align=left;verticalAlign=middle;spacingLeft=4;spacingRight=4;overflow=hidden;points=[[0,0.5],[1,0.5]];portConstraint=eastwest;rotatable=0;whiteSpace=wrap;html=1;" parent="c5LJ12ENoQJ3aCximBec-48" vertex="1">
          <mxGeometry y="60" width="160" height="30" as="geometry" />
        </mxCell>
        <mxCell id="c5LJ12ENoQJ3aCximBec-51" value="AddressLine1" style="text;strokeColor=none;fillColor=none;align=left;verticalAlign=middle;spacingLeft=4;spacingRight=4;overflow=hidden;points=[[0,0.5],[1,0.5]];portConstraint=eastwest;rotatable=0;whiteSpace=wrap;html=1;" parent="c5LJ12ENoQJ3aCximBec-48" vertex="1">
          <mxGeometry y="90" width="160" height="30" as="geometry" />
        </mxCell>
        <mxCell id="c5LJ12ENoQJ3aCximBec-126" value="AddressLine2" style="text;strokeColor=none;fillColor=none;align=left;verticalAlign=middle;spacingLeft=4;spacingRight=4;overflow=hidden;points=[[0,0.5],[1,0.5]];portConstraint=eastwest;rotatable=0;whiteSpace=wrap;html=1;" parent="c5LJ12ENoQJ3aCximBec-48" vertex="1">
          <mxGeometry y="120" width="160" height="30" as="geometry" />
        </mxCell>
        <mxCell id="c5LJ12ENoQJ3aCximBec-127" value="City" style="text;strokeColor=none;fillColor=none;align=left;verticalAlign=middle;spacingLeft=4;spacingRight=4;overflow=hidden;points=[[0,0.5],[1,0.5]];portConstraint=eastwest;rotatable=0;whiteSpace=wrap;html=1;" parent="c5LJ12ENoQJ3aCximBec-48" vertex="1">
          <mxGeometry y="150" width="160" height="30" as="geometry" />
        </mxCell>
        <mxCell id="c5LJ12ENoQJ3aCximBec-128" value="StateProvinceCode" style="text;strokeColor=none;fillColor=none;align=left;verticalAlign=middle;spacingLeft=4;spacingRight=4;overflow=hidden;points=[[0,0.5],[1,0.5]];portConstraint=eastwest;rotatable=0;whiteSpace=wrap;html=1;" parent="c5LJ12ENoQJ3aCximBec-48" vertex="1">
          <mxGeometry y="180" width="160" height="30" as="geometry" />
        </mxCell>
        <mxCell id="c5LJ12ENoQJ3aCximBec-176" value="StateProvinceName" style="text;strokeColor=none;fillColor=none;align=left;verticalAlign=middle;spacingLeft=4;spacingRight=4;overflow=hidden;points=[[0,0.5],[1,0.5]];portConstraint=eastwest;rotatable=0;whiteSpace=wrap;html=1;" parent="c5LJ12ENoQJ3aCximBec-48" vertex="1">
          <mxGeometry y="210" width="160" height="30" as="geometry" />
        </mxCell>
        <mxCell id="c5LJ12ENoQJ3aCximBec-177" value="CountryRegionName" style="text;strokeColor=none;fillColor=none;align=left;verticalAlign=middle;spacingLeft=4;spacingRight=4;overflow=hidden;points=[[0,0.5],[1,0.5]];portConstraint=eastwest;rotatable=0;whiteSpace=wrap;html=1;" parent="c5LJ12ENoQJ3aCximBec-48" vertex="1">
          <mxGeometry y="240" width="160" height="30" as="geometry" />
        </mxCell>
        <mxCell id="c5LJ12ENoQJ3aCximBec-129" value="PostalCode" style="text;strokeColor=none;fillColor=none;align=left;verticalAlign=middle;spacingLeft=4;spacingRight=4;overflow=hidden;points=[[0,0.5],[1,0.5]];portConstraint=eastwest;rotatable=0;whiteSpace=wrap;html=1;" parent="c5LJ12ENoQJ3aCximBec-48" vertex="1">
          <mxGeometry y="270" width="160" height="30" as="geometry" />
        </mxCell>
        <mxCell id="c5LJ12ENoQJ3aCximBec-130" value="CreatedDate" style="text;strokeColor=none;fillColor=none;align=left;verticalAlign=middle;spacingLeft=4;spacingRight=4;overflow=hidden;points=[[0,0.5],[1,0.5]];portConstraint=eastwest;rotatable=0;whiteSpace=wrap;html=1;" parent="c5LJ12ENoQJ3aCximBec-48" vertex="1">
          <mxGeometry y="300" width="160" height="30" as="geometry" />
        </mxCell>
        <mxCell id="c5LJ12ENoQJ3aCximBec-131" value="ModifiedDate" style="text;strokeColor=none;fillColor=none;align=left;verticalAlign=middle;spacingLeft=4;spacingRight=4;overflow=hidden;points=[[0,0.5],[1,0.5]];portConstraint=eastwest;rotatable=0;whiteSpace=wrap;html=1;" parent="c5LJ12ENoQJ3aCximBec-48" vertex="1">
          <mxGeometry y="330" width="160" height="30" as="geometry" />
        </mxCell>
        <mxCell id="c5LJ12ENoQJ3aCximBec-148" value="IsCurrent" style="text;strokeColor=none;fillColor=none;align=left;verticalAlign=middle;spacingLeft=4;spacingRight=4;overflow=hidden;points=[[0,0.5],[1,0.5]];portConstraint=eastwest;rotatable=0;whiteSpace=wrap;html=1;" parent="c5LJ12ENoQJ3aCximBec-48" vertex="1">
          <mxGeometry y="360" width="160" height="30" as="geometry" />
        </mxCell>
        <mxCell id="c5LJ12ENoQJ3aCximBec-15" value="&lt;font style=&quot;font-size: 16px;&quot;&gt;FactSales&lt;/font&gt;" style="swimlane;fontStyle=0;childLayout=stackLayout;horizontal=1;startSize=30;horizontalStack=0;resizeParent=1;resizeParentMax=0;resizeLast=0;collapsible=1;marginBottom=0;whiteSpace=wrap;html=1;" parent="1" vertex="1">
          <mxGeometry x="330" y="-1310" width="196" height="510" as="geometry">
            <mxRectangle x="320" y="210" width="90" height="30" as="alternateBounds" />
          </mxGeometry>
        </mxCell>
        <mxCell id="KgQD6hHgHTj1ExopGDVP-1" value="&lt;span style=&quot;font-weight: normal;&quot;&gt;OrderDateKey&lt;/span&gt;" style="text;strokeColor=none;fillColor=none;align=left;verticalAlign=middle;spacingLeft=4;spacingRight=4;overflow=hidden;points=[[0,0.5],[1,0.5]];portConstraint=eastwest;rotatable=0;whiteSpace=wrap;html=1;fontStyle=1" parent="c5LJ12ENoQJ3aCximBec-15" vertex="1">
          <mxGeometry y="30" width="196" height="30" as="geometry" />
        </mxCell>
        <mxCell id="c5LJ12ENoQJ3aCximBec-154" value="&lt;span style=&quot;font-weight: normal;&quot;&gt;ShipDateKey&lt;/span&gt;" style="text;strokeColor=none;fillColor=none;align=left;verticalAlign=middle;spacingLeft=4;spacingRight=4;overflow=hidden;points=[[0,0.5],[1,0.5]];portConstraint=eastwest;rotatable=0;whiteSpace=wrap;html=1;fontStyle=1" parent="c5LJ12ENoQJ3aCximBec-15" vertex="1">
          <mxGeometry y="60" width="196" height="30" as="geometry" />
        </mxCell>
        <mxCell id="c5LJ12ENoQJ3aCximBec-155" value="&lt;span style=&quot;font-weight: normal;&quot;&gt;DueDateKey&lt;/span&gt;" style="text;strokeColor=none;fillColor=none;align=left;verticalAlign=middle;spacingLeft=4;spacingRight=4;overflow=hidden;points=[[0,0.5],[1,0.5]];portConstraint=eastwest;rotatable=0;whiteSpace=wrap;html=1;fontStyle=1" parent="c5LJ12ENoQJ3aCximBec-15" vertex="1">
          <mxGeometry y="90" width="196" height="30" as="geometry" />
        </mxCell>
        <mxCell id="c5LJ12ENoQJ3aCximBec-17" value="ProductKey" style="text;strokeColor=none;fillColor=none;align=left;verticalAlign=middle;spacingLeft=4;spacingRight=4;overflow=hidden;points=[[0,0.5],[1,0.5]];portConstraint=eastwest;rotatable=0;whiteSpace=wrap;html=1;fontStyle=1" parent="c5LJ12ENoQJ3aCximBec-15" vertex="1">
          <mxGeometry y="120" width="196" height="30" as="geometry" />
        </mxCell>
        <mxCell id="c5LJ12ENoQJ3aCximBec-18" value="&lt;span style=&quot;font-weight: normal;&quot;&gt;EmployeeKey&lt;/span&gt;" style="text;strokeColor=none;fillColor=none;align=left;verticalAlign=middle;spacingLeft=4;spacingRight=4;overflow=hidden;points=[[0,0.5],[1,0.5]];portConstraint=eastwest;rotatable=0;whiteSpace=wrap;html=1;fontStyle=1" parent="c5LJ12ENoQJ3aCximBec-15" vertex="1">
          <mxGeometry y="150" width="196" height="30" as="geometry" />
        </mxCell>
        <mxCell id="c5LJ12ENoQJ3aCximBec-65" value="&lt;span style=&quot;font-weight: normal;&quot;&gt;ShippingMethodKey&lt;/span&gt;" style="text;strokeColor=none;fillColor=none;align=left;verticalAlign=middle;spacingLeft=4;spacingRight=4;overflow=hidden;points=[[0,0.5],[1,0.5]];portConstraint=eastwest;rotatable=0;whiteSpace=wrap;html=1;fontStyle=1" parent="c5LJ12ENoQJ3aCximBec-15" vertex="1">
          <mxGeometry y="180" width="196" height="30" as="geometry" />
        </mxCell>
        <mxCell id="c5LJ12ENoQJ3aCximBec-69" value="&lt;span style=&quot;font-weight: normal;&quot;&gt;AddressKey&lt;/span&gt;" style="text;strokeColor=none;fillColor=none;align=left;verticalAlign=middle;spacingLeft=4;spacingRight=4;overflow=hidden;points=[[0,0.5],[1,0.5]];portConstraint=eastwest;rotatable=0;whiteSpace=wrap;html=1;fontStyle=1" parent="c5LJ12ENoQJ3aCximBec-15" vertex="1">
          <mxGeometry y="210" width="196" height="30" as="geometry" />
        </mxCell>
        <mxCell id="c5LJ12ENoQJ3aCximBec-68" value="&lt;span style=&quot;font-weight: normal;&quot;&gt;CurrencyKey&lt;/span&gt;" style="text;strokeColor=none;fillColor=none;align=left;verticalAlign=middle;spacingLeft=4;spacingRight=4;overflow=hidden;points=[[0,0.5],[1,0.5]];portConstraint=eastwest;rotatable=0;whiteSpace=wrap;html=1;fontStyle=1" parent="c5LJ12ENoQJ3aCximBec-15" vertex="1">
          <mxGeometry y="240" width="196" height="30" as="geometry" />
        </mxCell>
        <mxCell id="c5LJ12ENoQJ3aCximBec-67" value="&lt;span style=&quot;font-weight: normal;&quot;&gt;CustomerKey&lt;/span&gt;" style="text;strokeColor=none;fillColor=none;align=left;verticalAlign=middle;spacingLeft=4;spacingRight=4;overflow=hidden;points=[[0,0.5],[1,0.5]];portConstraint=eastwest;rotatable=0;whiteSpace=wrap;html=1;fontStyle=1" parent="c5LJ12ENoQJ3aCximBec-15" vertex="1">
          <mxGeometry y="270" width="196" height="30" as="geometry" />
        </mxCell>
        <mxCell id="c5LJ12ENoQJ3aCximBec-71" value="&lt;span style=&quot;font-weight: normal;&quot;&gt;TerritoryKey&lt;/span&gt;" style="text;strokeColor=none;fillColor=none;align=left;verticalAlign=middle;spacingLeft=4;spacingRight=4;overflow=hidden;points=[[0,0.5],[1,0.5]];portConstraint=eastwest;rotatable=0;whiteSpace=wrap;html=1;fontStyle=1" parent="c5LJ12ENoQJ3aCximBec-15" vertex="1">
          <mxGeometry y="300" width="196" height="30" as="geometry" />
        </mxCell>
        <mxCell id="c5LJ12ENoQJ3aCximBec-159" value="&lt;b&gt;TransactionKey&lt;/b&gt;" style="text;strokeColor=none;fillColor=none;align=left;verticalAlign=middle;spacingLeft=4;spacingRight=4;overflow=hidden;points=[[0,0.5],[1,0.5]];portConstraint=eastwest;rotatable=0;whiteSpace=wrap;html=1;" parent="c5LJ12ENoQJ3aCximBec-15" vertex="1">
          <mxGeometry y="330" width="196" height="30" as="geometry" />
        </mxCell>
        <mxCell id="c5LJ12ENoQJ3aCximBec-72" value="OrderQty" style="text;strokeColor=none;fillColor=none;align=left;verticalAlign=middle;spacingLeft=4;spacingRight=4;overflow=hidden;points=[[0,0.5],[1,0.5]];portConstraint=eastwest;rotatable=0;whiteSpace=wrap;html=1;fontStyle=0" parent="c5LJ12ENoQJ3aCximBec-15" vertex="1">
          <mxGeometry y="360" width="196" height="30" as="geometry" />
        </mxCell>
        <mxCell id="c5LJ12ENoQJ3aCximBec-73" value="UnitPrice" style="text;strokeColor=none;fillColor=none;align=left;verticalAlign=middle;spacingLeft=4;spacingRight=4;overflow=hidden;points=[[0,0.5],[1,0.5]];portConstraint=eastwest;rotatable=0;whiteSpace=wrap;html=1;" parent="c5LJ12ENoQJ3aCximBec-15" vertex="1">
          <mxGeometry y="390" width="196" height="30" as="geometry" />
        </mxCell>
        <mxCell id="c5LJ12ENoQJ3aCximBec-74" value="UnitPriceDiscount" style="text;strokeColor=none;fillColor=none;align=left;verticalAlign=middle;spacingLeft=4;spacingRight=4;overflow=hidden;points=[[0,0.5],[1,0.5]];portConstraint=eastwest;rotatable=0;whiteSpace=wrap;html=1;" parent="c5LJ12ENoQJ3aCximBec-15" vertex="1">
          <mxGeometry y="420" width="196" height="30" as="geometry" />
        </mxCell>
        <mxCell id="c5LJ12ENoQJ3aCximBec-156" value="SalesOrderDetailID" style="text;strokeColor=none;fillColor=none;align=left;verticalAlign=middle;spacingLeft=4;spacingRight=4;overflow=hidden;points=[[0,0.5],[1,0.5]];portConstraint=eastwest;rotatable=0;whiteSpace=wrap;html=1;" parent="c5LJ12ENoQJ3aCximBec-15" vertex="1">
          <mxGeometry y="450" width="196" height="30" as="geometry" />
        </mxCell>
        <mxCell id="c5LJ12ENoQJ3aCximBec-76" value="LineTotal" style="text;strokeColor=none;fillColor=none;align=left;verticalAlign=middle;spacingLeft=4;spacingRight=4;overflow=hidden;points=[[0,0.5],[1,0.5]];portConstraint=eastwest;rotatable=0;whiteSpace=wrap;html=1;" parent="c5LJ12ENoQJ3aCximBec-15" vertex="1">
          <mxGeometry y="480" width="196" height="30" as="geometry" />
        </mxCell>
        <mxCell id="ylB68v5nWnhXSlQ2QiQB-2" value="&lt;font style=&quot;font-size: 16px;&quot;&gt;DimShippingMethod&lt;/font&gt;" style="swimlane;fontStyle=0;childLayout=stackLayout;horizontal=1;startSize=30;horizontalStack=0;resizeParent=1;resizeParentMax=0;resizeLast=0;collapsible=1;marginBottom=0;whiteSpace=wrap;html=1;" parent="1" vertex="1">
          <mxGeometry x="970" y="-1160" width="170" height="270" as="geometry" />
        </mxCell>
        <mxCell id="ylB68v5nWnhXSlQ2QiQB-3" value="ShipMethodKey" style="text;strokeColor=none;fillColor=none;align=left;verticalAlign=middle;spacingLeft=4;spacingRight=4;overflow=hidden;points=[[0,0.5],[1,0.5]];portConstraint=eastwest;rotatable=0;whiteSpace=wrap;html=1;fontStyle=1" parent="ylB68v5nWnhXSlQ2QiQB-2" vertex="1">
          <mxGeometry y="30" width="170" height="30" as="geometry" />
        </mxCell>
        <mxCell id="ylB68v5nWnhXSlQ2QiQB-4" value="ShipMethodID" style="text;strokeColor=none;fillColor=none;align=left;verticalAlign=middle;spacingLeft=4;spacingRight=4;overflow=hidden;points=[[0,0.5],[1,0.5]];portConstraint=eastwest;rotatable=0;whiteSpace=wrap;html=1;" parent="ylB68v5nWnhXSlQ2QiQB-2" vertex="1">
          <mxGeometry y="60" width="170" height="30" as="geometry" />
        </mxCell>
        <mxCell id="ylB68v5nWnhXSlQ2QiQB-5" value="Name" style="text;strokeColor=none;fillColor=none;align=left;verticalAlign=middle;spacingLeft=4;spacingRight=4;overflow=hidden;points=[[0,0.5],[1,0.5]];portConstraint=eastwest;rotatable=0;whiteSpace=wrap;html=1;" parent="ylB68v5nWnhXSlQ2QiQB-2" vertex="1">
          <mxGeometry y="90" width="170" height="30" as="geometry" />
        </mxCell>
        <mxCell id="c5LJ12ENoQJ3aCximBec-132" value="ShipBase" style="text;strokeColor=none;fillColor=none;align=left;verticalAlign=middle;spacingLeft=4;spacingRight=4;overflow=hidden;points=[[0,0.5],[1,0.5]];portConstraint=eastwest;rotatable=0;whiteSpace=wrap;html=1;" parent="ylB68v5nWnhXSlQ2QiQB-2" vertex="1">
          <mxGeometry y="120" width="170" height="30" as="geometry" />
        </mxCell>
        <mxCell id="c5LJ12ENoQJ3aCximBec-133" value="ShipRate" style="text;strokeColor=none;fillColor=none;align=left;verticalAlign=middle;spacingLeft=4;spacingRight=4;overflow=hidden;points=[[0,0.5],[1,0.5]];portConstraint=eastwest;rotatable=0;whiteSpace=wrap;html=1;" parent="ylB68v5nWnhXSlQ2QiQB-2" vertex="1">
          <mxGeometry y="150" width="170" height="30" as="geometry" />
        </mxCell>
        <mxCell id="c5LJ12ENoQJ3aCximBec-134" value="CreatedDate" style="text;strokeColor=none;fillColor=none;align=left;verticalAlign=middle;spacingLeft=4;spacingRight=4;overflow=hidden;points=[[0,0.5],[1,0.5]];portConstraint=eastwest;rotatable=0;whiteSpace=wrap;html=1;" parent="ylB68v5nWnhXSlQ2QiQB-2" vertex="1">
          <mxGeometry y="180" width="170" height="30" as="geometry" />
        </mxCell>
        <mxCell id="c5LJ12ENoQJ3aCximBec-135" value="ModifiedDate" style="text;strokeColor=none;fillColor=none;align=left;verticalAlign=middle;spacingLeft=4;spacingRight=4;overflow=hidden;points=[[0,0.5],[1,0.5]];portConstraint=eastwest;rotatable=0;whiteSpace=wrap;html=1;" parent="ylB68v5nWnhXSlQ2QiQB-2" vertex="1">
          <mxGeometry y="210" width="170" height="30" as="geometry" />
        </mxCell>
        <mxCell id="c5LJ12ENoQJ3aCximBec-152" value="IsCurrent" style="text;strokeColor=none;fillColor=none;align=left;verticalAlign=middle;spacingLeft=4;spacingRight=4;overflow=hidden;points=[[0,0.5],[1,0.5]];portConstraint=eastwest;rotatable=0;whiteSpace=wrap;html=1;" parent="ylB68v5nWnhXSlQ2QiQB-2" vertex="1">
          <mxGeometry y="240" width="170" height="30" as="geometry" />
        </mxCell>
        <mxCell id="WiNG1Lyjy8zmzZV9dCeJ-3" style="edgeStyle=orthogonalEdgeStyle;rounded=0;orthogonalLoop=1;jettySize=auto;html=1;exitX=1;exitY=0.5;exitDx=0;exitDy=0;entryX=0;entryY=0.5;entryDx=0;entryDy=0;endArrow=none;endFill=0;" parent="1" source="c5LJ12ENoQJ3aCximBec-25" target="c5LJ12ENoQJ3aCximBec-17" edge="1">
          <mxGeometry relative="1" as="geometry" />
        </mxCell>
        <mxCell id="WiNG1Lyjy8zmzZV9dCeJ-7" style="edgeStyle=orthogonalEdgeStyle;rounded=0;orthogonalLoop=1;jettySize=auto;html=1;exitX=0;exitY=0.5;exitDx=0;exitDy=0;entryX=1;entryY=0.5;entryDx=0;entryDy=0;endArrow=none;endFill=0;" parent="1" source="c5LJ12ENoQJ3aCximBec-154" target="c5LJ12ENoQJ3aCximBec-20" edge="1">
          <mxGeometry relative="1" as="geometry">
            <mxPoint x="250" y="-1100" as="targetPoint" />
            <Array as="points">
              <mxPoint x="80" y="-1235" />
              <mxPoint x="80" y="-1675" />
            </Array>
          </mxGeometry>
        </mxCell>
        <mxCell id="WiNG1Lyjy8zmzZV9dCeJ-8" style="edgeStyle=orthogonalEdgeStyle;rounded=0;orthogonalLoop=1;jettySize=auto;html=1;exitX=0;exitY=0.5;exitDx=0;exitDy=0;entryX=1;entryY=0.5;entryDx=0;entryDy=0;endArrow=none;endFill=0;" parent="1" source="KgQD6hHgHTj1ExopGDVP-1" target="c5LJ12ENoQJ3aCximBec-20" edge="1">
          <mxGeometry relative="1" as="geometry">
            <mxPoint x="250" y="-1120" as="targetPoint" />
            <Array as="points">
              <mxPoint x="80" y="-1265" />
              <mxPoint x="80" y="-1675" />
            </Array>
          </mxGeometry>
        </mxCell>
        <mxCell id="WiNG1Lyjy8zmzZV9dCeJ-10" style="edgeStyle=orthogonalEdgeStyle;rounded=0;orthogonalLoop=1;jettySize=auto;html=1;exitX=0;exitY=0.5;exitDx=0;exitDy=0;entryX=1;entryY=0.5;entryDx=0;entryDy=0;endArrow=none;endFill=0;" parent="1" source="ylB68v5nWnhXSlQ2QiQB-3" target="c5LJ12ENoQJ3aCximBec-65" edge="1">
          <mxGeometry relative="1" as="geometry" />
        </mxCell>
        <mxCell id="WiNG1Lyjy8zmzZV9dCeJ-12" style="edgeStyle=orthogonalEdgeStyle;rounded=0;orthogonalLoop=1;jettySize=auto;html=1;exitX=0;exitY=0.5;exitDx=0;exitDy=0;entryX=1;entryY=0.5;entryDx=0;entryDy=0;endArrow=none;endFill=0;" parent="1" source="c5LJ12ENoQJ3aCximBec-45" target="c5LJ12ENoQJ3aCximBec-159" edge="1">
          <mxGeometry relative="1" as="geometry" />
        </mxCell>
        <mxCell id="WiNG1Lyjy8zmzZV9dCeJ-13" style="edgeStyle=orthogonalEdgeStyle;rounded=0;orthogonalLoop=1;jettySize=auto;html=1;exitX=0;exitY=0.5;exitDx=0;exitDy=0;entryX=1;entryY=0.5;entryDx=0;entryDy=0;endArrow=none;endFill=0;" parent="1" source="c5LJ12ENoQJ3aCximBec-41" target="c5LJ12ENoQJ3aCximBec-71" edge="1">
          <mxGeometry relative="1" as="geometry" />
        </mxCell>
        <mxCell id="WiNG1Lyjy8zmzZV9dCeJ-14" style="edgeStyle=orthogonalEdgeStyle;rounded=0;orthogonalLoop=1;jettySize=auto;html=1;exitX=0;exitY=0.5;exitDx=0;exitDy=0;entryX=1;entryY=0.5;entryDx=0;entryDy=0;endArrow=none;endFill=0;" parent="1" source="c5LJ12ENoQJ3aCximBec-37" target="c5LJ12ENoQJ3aCximBec-13" edge="1">
          <mxGeometry relative="1" as="geometry" />
        </mxCell>
        <mxCell id="WiNG1Lyjy8zmzZV9dCeJ-16" style="edgeStyle=orthogonalEdgeStyle;rounded=0;orthogonalLoop=1;jettySize=auto;html=1;exitX=0;exitY=0.5;exitDx=0;exitDy=0;entryX=1;entryY=0.5;entryDx=0;entryDy=0;endArrow=none;endFill=0;" parent="1" source="c5LJ12ENoQJ3aCximBec-37" target="c5LJ12ENoQJ3aCximBec-14" edge="1">
          <mxGeometry relative="1" as="geometry" />
        </mxCell>
        <mxCell id="WiNG1Lyjy8zmzZV9dCeJ-21" style="edgeStyle=orthogonalEdgeStyle;rounded=0;orthogonalLoop=1;jettySize=auto;html=1;exitX=0;exitY=0.5;exitDx=0;exitDy=0;entryX=1;entryY=0.5;entryDx=0;entryDy=0;endArrow=none;endFill=0;" parent="1" source="c5LJ12ENoQJ3aCximBec-33" target="c5LJ12ENoQJ3aCximBec-18" edge="1">
          <mxGeometry relative="1" as="geometry">
            <Array as="points">
              <mxPoint x="1070" y="-1485" />
              <mxPoint x="1070" y="-1330" />
              <mxPoint x="888" y="-1330" />
              <mxPoint x="888" y="-1145" />
            </Array>
          </mxGeometry>
        </mxCell>
        <mxCell id="WiNG1Lyjy8zmzZV9dCeJ-26" style="edgeStyle=orthogonalEdgeStyle;rounded=0;orthogonalLoop=1;jettySize=auto;html=1;exitX=0;exitY=0.5;exitDx=0;exitDy=0;entryX=1;entryY=0.5;entryDx=0;entryDy=0;endArrow=none;endFill=0;" parent="1" source="c5LJ12ENoQJ3aCximBec-12" target="c5LJ12ENoQJ3aCximBec-20" edge="1">
          <mxGeometry relative="1" as="geometry" />
        </mxCell>
        <mxCell id="WiNG1Lyjy8zmzZV9dCeJ-27" style="edgeStyle=orthogonalEdgeStyle;rounded=0;orthogonalLoop=1;jettySize=auto;html=1;exitX=0;exitY=0.5;exitDx=0;exitDy=0;entryX=1;entryY=0.5;entryDx=0;entryDy=0;endArrow=none;endFill=0;" parent="1" source="c5LJ12ENoQJ3aCximBec-155" target="c5LJ12ENoQJ3aCximBec-20" edge="1">
          <mxGeometry relative="1" as="geometry">
            <Array as="points">
              <mxPoint x="80" y="-1205" />
              <mxPoint x="80" y="-1675" />
            </Array>
          </mxGeometry>
        </mxCell>
        <mxCell id="WiNG1Lyjy8zmzZV9dCeJ-30" style="edgeStyle=orthogonalEdgeStyle;rounded=0;orthogonalLoop=1;jettySize=auto;html=1;exitX=0;exitY=0.5;exitDx=0;exitDy=0;entryX=0;entryY=0.5;entryDx=0;entryDy=0;endArrow=none;endFill=0;" parent="1" source="c5LJ12ENoQJ3aCximBec-29" target="c5LJ12ENoQJ3aCximBec-67" edge="1">
          <mxGeometry relative="1" as="geometry" />
        </mxCell>
        <mxCell id="WiNG1Lyjy8zmzZV9dCeJ-31" style="edgeStyle=orthogonalEdgeStyle;rounded=0;orthogonalLoop=1;jettySize=auto;html=1;exitX=1;exitY=0.5;exitDx=0;exitDy=0;entryX=0;entryY=0.5;entryDx=0;entryDy=0;endArrow=none;endFill=0;" parent="1" source="c5LJ12ENoQJ3aCximBec-49" target="c5LJ12ENoQJ3aCximBec-69" edge="1">
          <mxGeometry relative="1" as="geometry" />
        </mxCell>
        <mxCell id="WiNG1Lyjy8zmzZV9dCeJ-32" style="edgeStyle=orthogonalEdgeStyle;rounded=0;orthogonalLoop=1;jettySize=auto;html=1;exitX=0;exitY=0.5;exitDx=0;exitDy=0;entryX=1;entryY=0.5;entryDx=0;entryDy=0;endArrow=none;endFill=0;" parent="1" source="c5LJ12ENoQJ3aCximBec-37" target="c5LJ12ENoQJ3aCximBec-68" edge="1">
          <mxGeometry relative="1" as="geometry" />
        </mxCell>
      </root>
    </mxGraphModel>
  </diagram>
</mxfile>
